<?xml version="1.0" encoding="UTF-8"?><svg id="Layer_2" xmlns="http://www.w3.org/2000/svg" viewBox="0 0 188.3828 40.4755"><g id="fairu-logo"><path d="M69.3582,30.4098h-20.6104l-3.7814,9.5331h-3.9408L57.056,0h3.9941l16.0303,39.9428h-3.9408l-3.7814-9.5331ZM67.9736,26.948l-8.8941-22.5809-8.9471,22.5809h17.8412Z" fill="#00a99d"/><path d="M92.8431,0h3.5681v39.9428h-3.5681V0Z" fill="#00a99d"/><path d="M143.3293,39.9428h-4.2607l-11.5036-18.2139h-7.9885v18.2139h-3.5681V0h13.4738c6.8702,0,11.3973,4.1541,11.3973,11.0243,0,6.1246-3.6748,9.959-9.3734,10.5447l11.8233,18.3738ZM129.1628,18.4802c4.6867,0,8.0952-2.0769,8.0952-7.4559,0-5.2193-3.4085-7.5625-8.0952-7.5625h-9.5864v15.0184h9.5864Z" fill="#00a99d"/><path d="M158.878,26.7883V0h3.5681v26.2557c0,6.8169,4.7937,10.5983,11.184,10.5983,6.3379,0,11.131-3.7814,11.131-10.5983V0h3.6218v26.7883c0,8.6278-6.2843,13.6871-14.7527,13.6871s-14.7521-5.0593-14.7521-13.6871Z" fill="#00a99d"/><rect width="36.9838" height="3.4618" fill="#00a99d"/><rect y="17.7346" width="25.4932" height="3.4618" fill="#00a99d"/><path d="M0,35.6205h4.3925v4.3223H0v-4.3223Z" fill="#00a99d"/><path d="M184.8147,0l-.0537,6.027-24.9188,33.9159h-4.5323L184.8147,0Z" fill="#00a99d"/></g></svg>